<svg xmlns="http://www.w3.org/2000/svg" version="1.1" xmlns:xlink="http://www.w3.org/1999/xlink" xmlns:svgjs="http://svgjs.dev/svgjs" width="1440" height="560" preserveAspectRatio="none" viewBox="0 0 1440 560"><g mask="url(&quot;#SvgjsMask1000&quot;)" fill="none"><rect width="1440" height="560" x="0" y="0" fill="#0e2a47"></rect><path d="M737.34 297.5L802.3 335L802.3 410L737.34 447.5L672.39 410L672.39 335zM932.2 185L997.16 222.5L997.16 297.5L932.2 335L867.25 297.5L867.25 222.5zM997.16 522.5L1062.11 560L1062.11 635L997.16 672.5L932.2 635L932.2 560zM1256.97 72.5L1321.92 110L1321.92 185L1256.97 222.5L1192.02 185L1192.02 110zM1256.97 297.5L1321.92 335L1321.92 410L1256.97 447.5L1192.02 410L1192.02 335zM1386.88 297.5L1451.83 335L1451.83 410L1386.88 447.5L1321.92 410L1321.92 335zM1386.88 522.5L1451.83 560L1451.83 635L1386.88 672.5L1321.92 635L1321.92 560zM1451.83 410L1516.79 447.5L1516.79 522.5L1451.83 560L1386.88 522.5L1386.88 447.5z" stroke="#03305d" stroke-width="2"></path><path d="M729.84 297.5 a7.5 7.5 0 1 0 15 0 a7.5 7.5 0 1 0 -15 0zM794.8 335 a7.5 7.5 0 1 0 15 0 a7.5 7.5 0 1 0 -15 0zM794.8 410 a7.5 7.5 0 1 0 15 0 a7.5 7.5 0 1 0 -15 0zM729.84 447.5 a7.5 7.5 0 1 0 15 0 a7.5 7.5 0 1 0 -15 0zM664.89 410 a7.5 7.5 0 1 0 15 0 a7.5 7.5 0 1 0 -15 0zM664.89 335 a7.5 7.5 0 1 0 15 0 a7.5 7.5 0 1 0 -15 0zM924.7 185 a7.5 7.5 0 1 0 15 0 a7.5 7.5 0 1 0 -15 0zM989.66 222.5 a7.5 7.5 0 1 0 15 0 a7.5 7.5 0 1 0 -15 0zM989.66 297.5 a7.5 7.5 0 1 0 15 0 a7.5 7.5 0 1 0 -15 0zM924.7 335 a7.5 7.5 0 1 0 15 0 a7.5 7.5 0 1 0 -15 0zM859.75 297.5 a7.5 7.5 0 1 0 15 0 a7.5 7.5 0 1 0 -15 0zM859.75 222.5 a7.5 7.5 0 1 0 15 0 a7.5 7.5 0 1 0 -15 0zM989.66 522.5 a7.5 7.5 0 1 0 15 0 a7.5 7.5 0 1 0 -15 0zM1054.61 560 a7.5 7.5 0 1 0 15 0 a7.5 7.5 0 1 0 -15 0zM1054.61 635 a7.5 7.5 0 1 0 15 0 a7.5 7.5 0 1 0 -15 0zM989.66 672.5 a7.5 7.5 0 1 0 15 0 a7.5 7.5 0 1 0 -15 0zM924.7 635 a7.5 7.5 0 1 0 15 0 a7.5 7.5 0 1 0 -15 0zM924.7 560 a7.5 7.5 0 1 0 15 0 a7.5 7.5 0 1 0 -15 0zM1249.47 72.5 a7.5 7.5 0 1 0 15 0 a7.5 7.5 0 1 0 -15 0zM1314.42 110 a7.5 7.5 0 1 0 15 0 a7.5 7.5 0 1 0 -15 0zM1314.42 185 a7.5 7.5 0 1 0 15 0 a7.5 7.5 0 1 0 -15 0zM1249.47 222.5 a7.5 7.5 0 1 0 15 0 a7.5 7.5 0 1 0 -15 0zM1184.52 185 a7.5 7.5 0 1 0 15 0 a7.5 7.5 0 1 0 -15 0zM1184.52 110 a7.5 7.5 0 1 0 15 0 a7.5 7.5 0 1 0 -15 0zM1249.47 297.5 a7.5 7.5 0 1 0 15 0 a7.5 7.5 0 1 0 -15 0zM1314.42 335 a7.5 7.5 0 1 0 15 0 a7.5 7.5 0 1 0 -15 0zM1314.42 410 a7.5 7.5 0 1 0 15 0 a7.5 7.5 0 1 0 -15 0zM1249.47 447.5 a7.5 7.5 0 1 0 15 0 a7.5 7.5 0 1 0 -15 0zM1184.52 410 a7.5 7.5 0 1 0 15 0 a7.5 7.5 0 1 0 -15 0zM1184.52 335 a7.5 7.5 0 1 0 15 0 a7.5 7.5 0 1 0 -15 0zM1379.38 297.5 a7.5 7.5 0 1 0 15 0 a7.5 7.5 0 1 0 -15 0zM1444.33 335 a7.5 7.5 0 1 0 15 0 a7.5 7.5 0 1 0 -15 0zM1444.33 410 a7.5 7.5 0 1 0 15 0 a7.5 7.5 0 1 0 -15 0zM1379.38 447.5 a7.5 7.5 0 1 0 15 0 a7.5 7.5 0 1 0 -15 0zM1379.38 522.5 a7.5 7.5 0 1 0 15 0 a7.5 7.5 0 1 0 -15 0zM1444.33 560 a7.5 7.5 0 1 0 15 0 a7.5 7.5 0 1 0 -15 0zM1444.33 635 a7.5 7.5 0 1 0 15 0 a7.5 7.5 0 1 0 -15 0zM1379.38 672.5 a7.5 7.5 0 1 0 15 0 a7.5 7.5 0 1 0 -15 0zM1314.42 635 a7.5 7.5 0 1 0 15 0 a7.5 7.5 0 1 0 -15 0zM1314.42 560 a7.5 7.5 0 1 0 15 0 a7.5 7.5 0 1 0 -15 0zM1509.29 447.5 a7.5 7.5 0 1 0 15 0 a7.5 7.5 0 1 0 -15 0zM1509.29 522.5 a7.5 7.5 0 1 0 15 0 a7.5 7.5 0 1 0 -15 0z" fill="#03305d"></path><path d="M15.68 -9.32L58.98 15.68L58.98 65.68L15.68 90.68L-27.62 65.68L-27.62 15.68zM58.98 215.68L102.28 240.68L102.28 290.68L58.98 315.68L15.68 290.68L15.68 240.68zM15.68 290.68L58.98 315.68L58.98 365.68L15.68 390.68L-27.62 365.68L-27.62 315.68zM145.59 365.68L188.89 390.68L188.89 440.68L145.59 465.68L102.28 440.68L102.28 390.68zM102.28 440.68L145.59 465.68L145.59 515.68L102.28 540.68L58.98 515.68L58.98 465.68zM188.89 -9.32L232.19 15.68L232.19 65.68L188.89 90.68L145.59 65.68L145.59 15.68zM232.19 65.68L275.5 90.68L275.5 140.68L232.19 165.68L188.89 140.68L188.89 90.68zM188.89 140.68L232.19 165.68L232.19 215.68L188.89 240.68L145.59 215.68L145.59 165.68zM188.89 440.68L232.19 465.68L232.19 515.68L188.89 540.68L145.59 515.68L145.59 465.68zM275.5 -9.32L318.8 15.68L318.8 65.68L275.5 90.68L232.19 65.68L232.19 15.68zM318.8 65.68L362.1 90.68L362.1 140.68L318.8 165.68L275.5 140.68L275.5 90.68zM275.5 290.68L318.8 315.68L318.8 365.68L275.5 390.68L232.19 365.68L232.19 315.68zM362.1 290.68L405.4 315.68L405.4 365.68L362.1 390.68L318.8 365.68L318.8 315.68zM405.4 515.68L448.71 540.68L448.71 590.68L405.4 615.68L362.1 590.68L362.1 540.68zM448.71 -9.32L492.01 15.68L492.01 65.68L448.71 90.68L405.4 65.68L405.4 15.68zM448.71 140.68L492.01 165.68L492.01 215.68L448.71 240.68L405.4 215.68L405.4 165.68zM492.01 215.68L535.31 240.68L535.31 290.68L492.01 315.68L448.71 290.68L448.71 240.68zM492.01 365.68L535.31 390.68L535.31 440.68L492.01 465.68L448.71 440.68L448.71 390.68zM535.31 -9.32L578.61 15.68L578.61 65.68L535.31 90.68L492.01 65.68L492.01 15.68zM535.31 440.68L578.61 465.68L578.61 515.68L535.31 540.68L492.01 515.68L492.01 465.68zM621.91 290.68L665.22 315.68L665.22 365.68L621.91 390.68L578.61 365.68L578.61 315.68zM708.52 290.68L751.82 315.68L751.82 365.68L708.52 390.68L665.22 365.68L665.22 315.68zM751.82 515.68L795.13 540.68L795.13 590.68L751.82 615.68L708.52 590.68L708.52 540.68zM795.13 440.68L838.43 465.68L838.43 515.68L795.13 540.68L751.82 515.68L751.82 465.68zM881.73 -9.32L925.03 15.68L925.03 65.68L881.73 90.68L838.43 65.68L838.43 15.68zM968.34 -9.32L1011.64 15.68L1011.64 65.68L968.34 90.68L925.03 65.68L925.03 15.68zM1011.64 65.68L1054.94 90.68L1054.94 140.68L1011.64 165.68L968.34 140.68L968.34 90.68zM1011.64 215.68L1054.94 240.68L1054.94 290.68L1011.64 315.68L968.34 290.68L968.34 240.68zM1011.64 515.68L1054.94 540.68L1054.94 590.68L1011.64 615.68L968.34 590.68L968.34 540.68zM1098.24 215.68L1141.55 240.68L1141.55 290.68L1098.24 315.68L1054.94 290.68L1054.94 240.68zM1184.85 65.68L1228.15 90.68L1228.15 140.68L1184.85 165.68L1141.55 140.68L1141.55 90.68zM1141.55 140.68L1184.85 165.68L1184.85 215.68L1141.55 240.68L1098.24 215.68L1098.24 165.68zM1141.55 290.68L1184.85 315.68L1184.85 365.68L1141.55 390.68L1098.24 365.68L1098.24 315.68zM1314.76 -9.32L1358.06 15.68L1358.06 65.68L1314.76 90.68L1271.45 65.68L1271.45 15.68zM1444.66 65.68L1487.97 90.68L1487.97 140.68L1444.66 165.68L1401.36 140.68L1401.36 90.68zM1444.66 215.68L1487.97 240.68L1487.97 290.68L1444.66 315.68L1401.36 290.68L1401.36 240.68zM1444.66 365.68L1487.97 390.68L1487.97 440.68L1444.66 465.68L1401.36 440.68L1401.36 390.68z" stroke="rgba(6, 80, 156, 0.93)" stroke-width="2"></path></g><defs><mask id="SvgjsMask1000"><rect width="1440" height="560" fill="#ffffff"></rect></mask></defs></svg>